<svg width="54" height="54" viewBox="0 0 54 54" fill="none" xmlns="http://www.w3.org/2000/svg">
<g filter="url(#filter0_ddiii_1202_6132)">
<g clip-path="url(#clip0_1202_6132)">
<rect x="3" width="48" height="48" rx="12" fill="#175CD3"/>
<rect width="48" height="48" transform="translate(3)" fill="url(#paint0_linear_1202_6132)"/>
<g filter="url(#filter1_d_1202_6132)">
<path d="M18.3745 18.375H12.9004C11.5749 18.375 10.5 19.4495 10.5 20.775V22.875H18.75C20.8211 22.875 22.5 21.1961 22.5 19.125C22.5 17.0539 24.1789 15.375 26.25 15.375H40.5C42.1569 15.375 43.5 14.0319 43.5 12.375V10.125H26.625C24.3468 10.125 22.5 11.9718 22.5 14.25C22.5 16.5282 20.6527 18.375 18.3745 18.375Z" fill="url(#paint1_linear_1202_6132)"/>
<path opacity="0.7" d="M18.3745 25.875H12.9004C11.5749 25.875 10.5 26.9495 10.5 28.275V30.375H18.75C20.8211 30.375 22.5 28.6961 22.5 26.625C22.5 24.5539 24.1789 22.875 26.25 22.875H36C37.6569 22.875 39 21.5319 39 19.875V17.625H26.625C24.3468 17.625 22.5 19.4718 22.5 21.75C22.5 24.0282 20.6527 25.875 18.3745 25.875Z" fill="url(#paint2_linear_1202_6132)"/>
<path opacity="0.5" d="M18.3745 33.375H12.9004C11.5749 33.375 10.5 34.4495 10.5 35.775V37.875H18.75C20.8211 37.875 22.5 36.1961 22.5 34.125C22.5 32.0539 24.1789 30.375 26.25 30.375H32.1C33.4255 30.375 34.5 29.3005 34.5 27.975V25.125H26.625C24.3468 25.125 22.5 26.9718 22.5 29.25C22.5 31.5282 20.6527 33.375 18.3745 33.375Z" fill="url(#paint3_linear_1202_6132)"/>
</g>
</g>
<rect x="4" y="1" width="46" height="46" rx="11" stroke="url(#paint4_linear_1202_6132)" stroke-width="2"/>
</g>
<defs>
<filter id="filter0_ddiii_1202_6132" x="0" y="-3" width="54" height="57" filterUnits="userSpaceOnUse" color-interpolation-filters="sRGB">
<feFlood flood-opacity="0" result="BackgroundImageFix"/>
<feColorMatrix in="SourceAlpha" type="matrix" values="0 0 0 0 0 0 0 0 0 0 0 0 0 0 0 0 0 0 127 0" result="hardAlpha"/>
<feOffset dy="1"/>
<feGaussianBlur stdDeviation="0.5"/>
<feComposite in2="hardAlpha" operator="out"/>
<feColorMatrix type="matrix" values="0 0 0 0 0.162923 0 0 0 0 0.162923 0 0 0 0 0.162923 0 0 0 0.08 0"/>
<feBlend mode="normal" in2="BackgroundImageFix" result="effect1_dropShadow_1202_6132"/>
<feColorMatrix in="SourceAlpha" type="matrix" values="0 0 0 0 0 0 0 0 0 0 0 0 0 0 0 0 0 0 127 0" result="hardAlpha"/>
<feMorphology radius="1" operator="erode" in="SourceAlpha" result="effect2_dropShadow_1202_6132"/>
<feOffset dy="3"/>
<feGaussianBlur stdDeviation="2"/>
<feComposite in2="hardAlpha" operator="out"/>
<feColorMatrix type="matrix" values="0 0 0 0 0.164706 0 0 0 0 0.164706 0 0 0 0 0.164706 0 0 0 0.14 0"/>
<feBlend mode="normal" in2="effect1_dropShadow_1202_6132" result="effect2_dropShadow_1202_6132"/>
<feBlend mode="normal" in="SourceGraphic" in2="effect2_dropShadow_1202_6132" result="shape"/>
<feColorMatrix in="SourceAlpha" type="matrix" values="0 0 0 0 0 0 0 0 0 0 0 0 0 0 0 0 0 0 127 0" result="hardAlpha"/>
<feOffset dy="-3"/>
<feGaussianBlur stdDeviation="1.5"/>
<feComposite in2="hardAlpha" operator="arithmetic" k2="-1" k3="1"/>
<feColorMatrix type="matrix" values="0 0 0 0 0 0 0 0 0 0 0 0 0 0 0 0 0 0 0.1 0"/>
<feBlend mode="normal" in2="shape" result="effect3_innerShadow_1202_6132"/>
<feColorMatrix in="SourceAlpha" type="matrix" values="0 0 0 0 0 0 0 0 0 0 0 0 0 0 0 0 0 0 127 0" result="hardAlpha"/>
<feOffset dy="3"/>
<feGaussianBlur stdDeviation="1.5"/>
<feComposite in2="hardAlpha" operator="arithmetic" k2="-1" k3="1"/>
<feColorMatrix type="matrix" values="0 0 0 0 1 0 0 0 0 1 0 0 0 0 1 0 0 0 0.1 0"/>
<feBlend mode="normal" in2="effect3_innerShadow_1202_6132" result="effect4_innerShadow_1202_6132"/>
<feColorMatrix in="SourceAlpha" type="matrix" values="0 0 0 0 0 0 0 0 0 0 0 0 0 0 0 0 0 0 127 0" result="hardAlpha"/>
<feMorphology radius="1" operator="erode" in="SourceAlpha" result="effect5_innerShadow_1202_6132"/>
<feOffset/>
<feComposite in2="hardAlpha" operator="arithmetic" k2="-1" k3="1"/>
<feColorMatrix type="matrix" values="0 0 0 0 0 0 0 0 0 0 0 0 0 0 0 0 0 0 0.2 0"/>
<feBlend mode="normal" in2="effect4_innerShadow_1202_6132" result="effect5_innerShadow_1202_6132"/>
</filter>
<filter id="filter1_d_1202_6132" x="7.5" y="5.25" width="39" height="42" filterUnits="userSpaceOnUse" color-interpolation-filters="sRGB">
<feFlood flood-opacity="0" result="BackgroundImageFix"/>
<feColorMatrix in="SourceAlpha" type="matrix" values="0 0 0 0 0 0 0 0 0 0 0 0 0 0 0 0 0 0 127 0" result="hardAlpha"/>
<feMorphology radius="1.5" operator="erode" in="SourceAlpha" result="effect1_dropShadow_1202_6132"/>
<feOffset dy="2.25"/>
<feGaussianBlur stdDeviation="2.25"/>
<feComposite in2="hardAlpha" operator="out"/>
<feColorMatrix type="matrix" values="0 0 0 0 0.141176 0 0 0 0 0.141176 0 0 0 0 0.141176 0 0 0 0.1 0"/>
<feBlend mode="normal" in2="BackgroundImageFix" result="effect1_dropShadow_1202_6132"/>
<feBlend mode="normal" in="SourceGraphic" in2="effect1_dropShadow_1202_6132" result="shape"/>
</filter>
<linearGradient id="paint0_linear_1202_6132" x1="24" y1="5.96047e-07" x2="26" y2="48" gradientUnits="userSpaceOnUse">
<stop stop-color="white" stop-opacity="0"/>
<stop offset="1" stop-color="white" stop-opacity="0.12"/>
</linearGradient>
<linearGradient id="paint1_linear_1202_6132" x1="27" y1="10.125" x2="27" y2="22.875" gradientUnits="userSpaceOnUse">
<stop stop-color="white" stop-opacity="0.8"/>
<stop offset="1" stop-color="white" stop-opacity="0.5"/>
</linearGradient>
<linearGradient id="paint2_linear_1202_6132" x1="24.75" y1="17.625" x2="24.75" y2="30.375" gradientUnits="userSpaceOnUse">
<stop stop-color="white" stop-opacity="0.8"/>
<stop offset="1" stop-color="white" stop-opacity="0.5"/>
</linearGradient>
<linearGradient id="paint3_linear_1202_6132" x1="22.5" y1="25.125" x2="22.5" y2="37.875" gradientUnits="userSpaceOnUse">
<stop stop-color="white" stop-opacity="0.8"/>
<stop offset="1" stop-color="white" stop-opacity="0.5"/>
</linearGradient>
<linearGradient id="paint4_linear_1202_6132" x1="27" y1="0" x2="27" y2="48" gradientUnits="userSpaceOnUse">
<stop stop-color="white" stop-opacity="0.12"/>
<stop offset="1" stop-color="white" stop-opacity="0"/>
</linearGradient>
<clipPath id="clip0_1202_6132">
<rect x="3" width="48" height="48" rx="12" fill="white"/>
</clipPath>
</defs>
</svg>
